<mxfile host="app.diagrams.net" agent="Mozilla/5.0 (Windows NT 10.0; Win64; x64) AppleWebKit/537.36 (KHTML, like Gecko) Chrome/136.0.0.0 Safari/537.36" version="27.0.3">
  <diagram name="Page-1" id="eas9AO0mJ8a-cVQbIwSI">
    <mxGraphModel dx="3235" dy="937" grid="1" gridSize="10" guides="1" tooltips="1" connect="1" arrows="1" fold="1" page="1" pageScale="1" pageWidth="1100" pageHeight="850" math="0" shadow="0">
      <root>
        <mxCell id="0" />
        <mxCell id="1" parent="0" />
        <mxCell id="9IbDhbWunaavmZ5_FwmR-1" value="&lt;font style=&quot;font-size: 18px;&quot;&gt;area&lt;/font&gt;" style="whiteSpace=wrap;html=1;align=center;" vertex="1" parent="1">
          <mxGeometry x="710" y="540" width="100" height="40" as="geometry" />
        </mxCell>
        <mxCell id="9IbDhbWunaavmZ5_FwmR-2" value="&lt;font style=&quot;font-size: 24px;&quot;&gt;ERD Diagaram&lt;/font&gt;" style="text;align=center;fontStyle=1;verticalAlign=middle;spacingLeft=3;spacingRight=3;strokeColor=none;rotatable=0;points=[[0,0.5],[1,0.5]];portConstraint=eastwest;html=1;" vertex="1" parent="1">
          <mxGeometry x="460" y="30" width="180" height="26" as="geometry" />
        </mxCell>
        <mxCell id="9IbDhbWunaavmZ5_FwmR-3" value="" style="endArrow=none;html=1;rounded=0;entryX=0.25;entryY=0;entryDx=0;entryDy=0;exitX=0.646;exitY=0.925;exitDx=0;exitDy=0;exitPerimeter=0;" edge="1" parent="1" source="9IbDhbWunaavmZ5_FwmR-4" target="9IbDhbWunaavmZ5_FwmR-1">
          <mxGeometry relative="1" as="geometry">
            <mxPoint x="680" y="490" as="sourcePoint" />
            <mxPoint x="810" y="470" as="targetPoint" />
          </mxGeometry>
        </mxCell>
        <mxCell id="9IbDhbWunaavmZ5_FwmR-4" value="&lt;font style=&quot;font-size: 18px;&quot;&gt;AreaId&lt;/font&gt;" style="ellipse;whiteSpace=wrap;html=1;align=center;fontStyle=4;" vertex="1" parent="1">
          <mxGeometry x="610" y="460" width="100" height="40" as="geometry" />
        </mxCell>
        <mxCell id="9IbDhbWunaavmZ5_FwmR-5" value="" style="endArrow=none;html=1;rounded=0;entryX=1;entryY=0.5;entryDx=0;entryDy=0;exitX=0.426;exitY=1.065;exitDx=0;exitDy=0;exitPerimeter=0;" edge="1" parent="1" source="9IbDhbWunaavmZ5_FwmR-6" target="9IbDhbWunaavmZ5_FwmR-1">
          <mxGeometry relative="1" as="geometry">
            <mxPoint x="790" y="450" as="sourcePoint" />
            <mxPoint x="920" y="490" as="targetPoint" />
          </mxGeometry>
        </mxCell>
        <mxCell id="9IbDhbWunaavmZ5_FwmR-6" value="&lt;font style=&quot;font-size: 18px;&quot;&gt;AreaName&lt;/font&gt;" style="ellipse;whiteSpace=wrap;html=1;align=center;" vertex="1" parent="1">
          <mxGeometry x="920" y="520" width="100" height="40" as="geometry" />
        </mxCell>
        <mxCell id="9IbDhbWunaavmZ5_FwmR-8" value="&lt;font style=&quot;font-size: 18px;&quot;&gt;CityId&lt;/font&gt;" style="ellipse;whiteSpace=wrap;html=1;align=center;" vertex="1" parent="1">
          <mxGeometry x="890" y="450" width="100" height="40" as="geometry" />
        </mxCell>
        <mxCell id="9IbDhbWunaavmZ5_FwmR-9" value="" style="endArrow=none;html=1;rounded=0;exitX=1;exitY=0;exitDx=0;exitDy=0;entryX=0;entryY=1;entryDx=0;entryDy=0;" edge="1" parent="1" source="9IbDhbWunaavmZ5_FwmR-1" target="9IbDhbWunaavmZ5_FwmR-8">
          <mxGeometry relative="1" as="geometry">
            <mxPoint x="1010" y="570" as="sourcePoint" />
            <mxPoint x="1170" y="570" as="targetPoint" />
          </mxGeometry>
        </mxCell>
        <mxCell id="9IbDhbWunaavmZ5_FwmR-10" value="&lt;span style=&quot;font-size: 18px;&quot;&gt;Country&lt;/span&gt;" style="whiteSpace=wrap;html=1;align=center;" vertex="1" parent="1">
          <mxGeometry x="180" y="265" width="100" height="40" as="geometry" />
        </mxCell>
        <mxCell id="9IbDhbWunaavmZ5_FwmR-11" value="" style="endArrow=none;html=1;rounded=0;entryX=0.25;entryY=0;entryDx=0;entryDy=0;exitX=0.646;exitY=0.925;exitDx=0;exitDy=0;exitPerimeter=0;" edge="1" parent="1" source="9IbDhbWunaavmZ5_FwmR-12" target="9IbDhbWunaavmZ5_FwmR-10">
          <mxGeometry relative="1" as="geometry">
            <mxPoint x="130" y="215" as="sourcePoint" />
            <mxPoint x="260" y="195" as="targetPoint" />
          </mxGeometry>
        </mxCell>
        <mxCell id="9IbDhbWunaavmZ5_FwmR-12" value="&lt;span style=&quot;font-size: 18px;&quot;&gt;CountryId&lt;/span&gt;" style="ellipse;whiteSpace=wrap;html=1;align=center;fontStyle=4;" vertex="1" parent="1">
          <mxGeometry x="80" y="185" width="100" height="40" as="geometry" />
        </mxCell>
        <mxCell id="9IbDhbWunaavmZ5_FwmR-15" value="&lt;span style=&quot;font-size: 18px;&quot;&gt;CountryName&lt;/span&gt;" style="ellipse;whiteSpace=wrap;html=1;align=center;" vertex="1" parent="1">
          <mxGeometry x="300" y="180" width="130" height="50" as="geometry" />
        </mxCell>
        <mxCell id="9IbDhbWunaavmZ5_FwmR-16" value="" style="endArrow=none;html=1;rounded=0;exitX=1;exitY=0;exitDx=0;exitDy=0;entryX=0;entryY=1;entryDx=0;entryDy=0;" edge="1" parent="1" source="9IbDhbWunaavmZ5_FwmR-10" target="9IbDhbWunaavmZ5_FwmR-15">
          <mxGeometry relative="1" as="geometry">
            <mxPoint x="460" y="295" as="sourcePoint" />
            <mxPoint x="620" y="295" as="targetPoint" />
          </mxGeometry>
        </mxCell>
        <mxCell id="9IbDhbWunaavmZ5_FwmR-18" value="&lt;span style=&quot;font-size: 18px;&quot;&gt;City&lt;/span&gt;" style="whiteSpace=wrap;html=1;align=center;" vertex="1" parent="1">
          <mxGeometry x="710" y="265" width="100" height="40" as="geometry" />
        </mxCell>
        <mxCell id="9IbDhbWunaavmZ5_FwmR-19" value="" style="endArrow=none;html=1;rounded=0;entryX=0.25;entryY=0;entryDx=0;entryDy=0;exitX=0.646;exitY=0.925;exitDx=0;exitDy=0;exitPerimeter=0;" edge="1" parent="1" source="9IbDhbWunaavmZ5_FwmR-20" target="9IbDhbWunaavmZ5_FwmR-18">
          <mxGeometry relative="1" as="geometry">
            <mxPoint x="660" y="215" as="sourcePoint" />
            <mxPoint x="790" y="195" as="targetPoint" />
          </mxGeometry>
        </mxCell>
        <mxCell id="9IbDhbWunaavmZ5_FwmR-20" value="&lt;span style=&quot;font-size: 18px;&quot;&gt;CityId&lt;/span&gt;" style="ellipse;whiteSpace=wrap;html=1;align=center;fontStyle=4;" vertex="1" parent="1">
          <mxGeometry x="610" y="185" width="100" height="40" as="geometry" />
        </mxCell>
        <mxCell id="9IbDhbWunaavmZ5_FwmR-21" value="" style="endArrow=none;html=1;rounded=0;entryX=0.5;entryY=0;entryDx=0;entryDy=0;exitX=0.426;exitY=1.065;exitDx=0;exitDy=0;exitPerimeter=0;" edge="1" parent="1" source="9IbDhbWunaavmZ5_FwmR-22" target="9IbDhbWunaavmZ5_FwmR-18">
          <mxGeometry relative="1" as="geometry">
            <mxPoint x="770" y="175" as="sourcePoint" />
            <mxPoint x="900" y="215" as="targetPoint" />
          </mxGeometry>
        </mxCell>
        <mxCell id="9IbDhbWunaavmZ5_FwmR-22" value="&lt;span style=&quot;font-size: 18px;&quot;&gt;CityName&lt;/span&gt;" style="ellipse;whiteSpace=wrap;html=1;align=center;" vertex="1" parent="1">
          <mxGeometry x="720" y="135" width="100" height="40" as="geometry" />
        </mxCell>
        <mxCell id="9IbDhbWunaavmZ5_FwmR-23" value="&lt;span style=&quot;font-size: 18px;&quot;&gt;CountryId&lt;/span&gt;" style="ellipse;whiteSpace=wrap;html=1;align=center;" vertex="1" parent="1">
          <mxGeometry x="830" y="185" width="100" height="40" as="geometry" />
        </mxCell>
        <mxCell id="9IbDhbWunaavmZ5_FwmR-24" value="" style="endArrow=none;html=1;rounded=0;exitX=1;exitY=0;exitDx=0;exitDy=0;entryX=0;entryY=1;entryDx=0;entryDy=0;" edge="1" parent="1" source="9IbDhbWunaavmZ5_FwmR-18" target="9IbDhbWunaavmZ5_FwmR-23">
          <mxGeometry relative="1" as="geometry">
            <mxPoint x="990" y="295" as="sourcePoint" />
            <mxPoint x="1150" y="295" as="targetPoint" />
          </mxGeometry>
        </mxCell>
        <mxCell id="9IbDhbWunaavmZ5_FwmR-25" value="&lt;font style=&quot;font-size: 18px;&quot;&gt;has&lt;/font&gt;" style="shape=rhombus;perimeter=rhombusPerimeter;whiteSpace=wrap;html=1;align=center;" vertex="1" parent="1">
          <mxGeometry x="460" y="265" width="120" height="60" as="geometry" />
        </mxCell>
        <mxCell id="9IbDhbWunaavmZ5_FwmR-26" value="" style="endArrow=none;html=1;rounded=0;entryX=0;entryY=0.5;entryDx=0;entryDy=0;exitX=1;exitY=0.75;exitDx=0;exitDy=0;" edge="1" parent="1" source="9IbDhbWunaavmZ5_FwmR-10" target="9IbDhbWunaavmZ5_FwmR-25">
          <mxGeometry relative="1" as="geometry">
            <mxPoint x="300" y="310" as="sourcePoint" />
            <mxPoint x="440" y="294.41" as="targetPoint" />
          </mxGeometry>
        </mxCell>
        <mxCell id="9IbDhbWunaavmZ5_FwmR-27" value="" style="endArrow=none;html=1;rounded=0;exitX=1;exitY=0.5;exitDx=0;exitDy=0;entryX=0;entryY=0.75;entryDx=0;entryDy=0;" edge="1" parent="1" source="9IbDhbWunaavmZ5_FwmR-25" target="9IbDhbWunaavmZ5_FwmR-18">
          <mxGeometry relative="1" as="geometry">
            <mxPoint x="570" y="290" as="sourcePoint" />
            <mxPoint x="730" y="290" as="targetPoint" />
          </mxGeometry>
        </mxCell>
        <mxCell id="9IbDhbWunaavmZ5_FwmR-28" value="&lt;font style=&quot;font-size: 14px;&quot;&gt;1&lt;/font&gt;" style="text;html=1;align=center;verticalAlign=middle;resizable=0;points=[];autosize=1;strokeColor=none;fillColor=none;" vertex="1" parent="1">
          <mxGeometry x="275" y="268" width="30" height="30" as="geometry" />
        </mxCell>
        <mxCell id="9IbDhbWunaavmZ5_FwmR-29" value="&lt;font style=&quot;font-size: 14px;&quot;&gt;M&lt;/font&gt;" style="text;html=1;align=center;verticalAlign=middle;resizable=0;points=[];autosize=1;strokeColor=none;fillColor=none;" vertex="1" parent="1">
          <mxGeometry x="670" y="268" width="40" height="30" as="geometry" />
        </mxCell>
        <mxCell id="9IbDhbWunaavmZ5_FwmR-30" value="" style="endArrow=none;html=1;rounded=0;entryX=0;entryY=1;entryDx=0;entryDy=0;exitX=0.824;exitY=0.641;exitDx=0;exitDy=0;exitPerimeter=0;" edge="1" parent="1" source="9IbDhbWunaavmZ5_FwmR-25" target="9IbDhbWunaavmZ5_FwmR-18">
          <mxGeometry relative="1" as="geometry">
            <mxPoint x="570" y="305" as="sourcePoint" />
            <mxPoint x="700" y="330" as="targetPoint" />
          </mxGeometry>
        </mxCell>
        <mxCell id="9IbDhbWunaavmZ5_FwmR-31" value="&lt;font style=&quot;font-size: 18px;&quot;&gt;Has&lt;/font&gt;" style="shape=rhombus;perimeter=rhombusPerimeter;whiteSpace=wrap;html=1;align=center;" vertex="1" parent="1">
          <mxGeometry x="700" y="370" width="120" height="60" as="geometry" />
        </mxCell>
        <mxCell id="9IbDhbWunaavmZ5_FwmR-32" value="" style="endArrow=none;html=1;rounded=0;exitX=0.5;exitY=1;exitDx=0;exitDy=0;entryX=0.5;entryY=0;entryDx=0;entryDy=0;" edge="1" parent="1" source="9IbDhbWunaavmZ5_FwmR-18" target="9IbDhbWunaavmZ5_FwmR-31">
          <mxGeometry relative="1" as="geometry">
            <mxPoint x="570" y="380" as="sourcePoint" />
            <mxPoint x="730" y="380" as="targetPoint" />
          </mxGeometry>
        </mxCell>
        <mxCell id="9IbDhbWunaavmZ5_FwmR-35" value="" style="shape=link;html=1;rounded=0;entryX=0.5;entryY=0;entryDx=0;entryDy=0;width=10;" edge="1" parent="1" source="9IbDhbWunaavmZ5_FwmR-31" target="9IbDhbWunaavmZ5_FwmR-1">
          <mxGeometry relative="1" as="geometry">
            <mxPoint x="570" y="380" as="sourcePoint" />
            <mxPoint x="560" y="460" as="targetPoint" />
          </mxGeometry>
        </mxCell>
        <mxCell id="9IbDhbWunaavmZ5_FwmR-36" value="&lt;font style=&quot;font-size: 14px;&quot;&gt;M&lt;/font&gt;" style="resizable=0;html=1;whiteSpace=wrap;align=right;verticalAlign=bottom;" connectable="0" vertex="1" parent="9IbDhbWunaavmZ5_FwmR-35">
          <mxGeometry x="1" relative="1" as="geometry">
            <mxPoint x="-10" y="-11" as="offset" />
          </mxGeometry>
        </mxCell>
        <mxCell id="9IbDhbWunaavmZ5_FwmR-38" value="&lt;font style=&quot;font-size: 14px;&quot;&gt;1&lt;/font&gt;" style="text;html=1;align=center;verticalAlign=middle;resizable=0;points=[];autosize=1;strokeColor=none;fillColor=none;" vertex="1" parent="1">
          <mxGeometry x="720" y="425" width="30" height="30" as="geometry" />
        </mxCell>
        <mxCell id="9IbDhbWunaavmZ5_FwmR-40" value="&lt;span style=&quot;font-size: 18px;&quot;&gt;Product&lt;/span&gt;" style="whiteSpace=wrap;html=1;align=center;" vertex="1" parent="1">
          <mxGeometry x="330" y="530" width="100" height="40" as="geometry" />
        </mxCell>
        <mxCell id="9IbDhbWunaavmZ5_FwmR-41" value="" style="endArrow=none;html=1;rounded=0;entryX=0.25;entryY=0;entryDx=0;entryDy=0;exitX=0.646;exitY=0.925;exitDx=0;exitDy=0;exitPerimeter=0;" edge="1" parent="1" source="9IbDhbWunaavmZ5_FwmR-42" target="9IbDhbWunaavmZ5_FwmR-40">
          <mxGeometry relative="1" as="geometry">
            <mxPoint x="280" y="480" as="sourcePoint" />
            <mxPoint x="410" y="460" as="targetPoint" />
          </mxGeometry>
        </mxCell>
        <mxCell id="9IbDhbWunaavmZ5_FwmR-42" value="&lt;span style=&quot;font-size: 18px;&quot;&gt;productId&lt;/span&gt;" style="ellipse;whiteSpace=wrap;html=1;align=center;fontStyle=4;" vertex="1" parent="1">
          <mxGeometry x="230" y="450" width="100" height="40" as="geometry" />
        </mxCell>
        <mxCell id="9IbDhbWunaavmZ5_FwmR-43" value="" style="endArrow=none;html=1;rounded=0;entryX=0.5;entryY=0;entryDx=0;entryDy=0;exitX=0.426;exitY=1.065;exitDx=0;exitDy=0;exitPerimeter=0;" edge="1" parent="1" source="9IbDhbWunaavmZ5_FwmR-44" target="9IbDhbWunaavmZ5_FwmR-40">
          <mxGeometry relative="1" as="geometry">
            <mxPoint x="390" y="440" as="sourcePoint" />
            <mxPoint x="520" y="480" as="targetPoint" />
          </mxGeometry>
        </mxCell>
        <mxCell id="9IbDhbWunaavmZ5_FwmR-44" value="&lt;span style=&quot;font-size: 18px;&quot;&gt;title&lt;/span&gt;" style="ellipse;whiteSpace=wrap;html=1;align=center;" vertex="1" parent="1">
          <mxGeometry x="340" y="400" width="100" height="40" as="geometry" />
        </mxCell>
        <mxCell id="9IbDhbWunaavmZ5_FwmR-45" value="&lt;span style=&quot;font-size: 18px;&quot;&gt;details&lt;/span&gt;" style="ellipse;whiteSpace=wrap;html=1;align=center;" vertex="1" parent="1">
          <mxGeometry x="450" y="450" width="100" height="40" as="geometry" />
        </mxCell>
        <mxCell id="9IbDhbWunaavmZ5_FwmR-46" value="" style="endArrow=none;html=1;rounded=0;exitX=1;exitY=0;exitDx=0;exitDy=0;entryX=0;entryY=1;entryDx=0;entryDy=0;" edge="1" parent="1" source="9IbDhbWunaavmZ5_FwmR-40" target="9IbDhbWunaavmZ5_FwmR-45">
          <mxGeometry relative="1" as="geometry">
            <mxPoint x="610" y="560" as="sourcePoint" />
            <mxPoint x="770" y="560" as="targetPoint" />
          </mxGeometry>
        </mxCell>
        <mxCell id="9IbDhbWunaavmZ5_FwmR-47" value="&lt;font style=&quot;font-size: 18px;&quot;&gt;imgs&lt;/font&gt;" style="ellipse;whiteSpace=wrap;html=1;align=center;" vertex="1" parent="1">
          <mxGeometry x="260" y="630" width="100" height="40" as="geometry" />
        </mxCell>
        <mxCell id="9IbDhbWunaavmZ5_FwmR-50" value="&lt;font style=&quot;font-size: 18px;&quot;&gt;AreaId&lt;/font&gt;" style="ellipse;whiteSpace=wrap;html=1;align=center;" vertex="1" parent="1">
          <mxGeometry x="240" y="360" width="100" height="40" as="geometry" />
        </mxCell>
        <mxCell id="9IbDhbWunaavmZ5_FwmR-51" value="&lt;font style=&quot;font-size: 18px;&quot;&gt;CategoryId&lt;/font&gt;" style="ellipse;whiteSpace=wrap;html=1;align=center;" vertex="1" parent="1">
          <mxGeometry x="430" y="350" width="120" height="50" as="geometry" />
        </mxCell>
        <mxCell id="9IbDhbWunaavmZ5_FwmR-52" value="&lt;font style=&quot;font-size: 18px;&quot;&gt;CustomerId&lt;/font&gt;" style="ellipse;whiteSpace=wrap;html=1;align=center;" vertex="1" parent="1">
          <mxGeometry x="430" y="610" width="120" height="60" as="geometry" />
        </mxCell>
        <mxCell id="9IbDhbWunaavmZ5_FwmR-53" value="" style="endArrow=none;html=1;rounded=0;exitX=0.75;exitY=0;exitDx=0;exitDy=0;entryX=0.35;entryY=0.967;entryDx=0;entryDy=0;entryPerimeter=0;" edge="1" parent="1" source="9IbDhbWunaavmZ5_FwmR-40" target="9IbDhbWunaavmZ5_FwmR-51">
          <mxGeometry relative="1" as="geometry">
            <mxPoint x="400" y="500" as="sourcePoint" />
            <mxPoint x="560" y="500" as="targetPoint" />
          </mxGeometry>
        </mxCell>
        <mxCell id="9IbDhbWunaavmZ5_FwmR-54" value="" style="endArrow=none;html=1;rounded=0;exitX=0.25;exitY=0;exitDx=0;exitDy=0;entryX=0.595;entryY=1.043;entryDx=0;entryDy=0;entryPerimeter=0;" edge="1" parent="1" source="9IbDhbWunaavmZ5_FwmR-40" target="9IbDhbWunaavmZ5_FwmR-50">
          <mxGeometry relative="1" as="geometry">
            <mxPoint x="560" y="470" as="sourcePoint" />
            <mxPoint x="720" y="470" as="targetPoint" />
          </mxGeometry>
        </mxCell>
        <mxCell id="9IbDhbWunaavmZ5_FwmR-55" value="" style="endArrow=none;html=1;rounded=0;exitX=0.688;exitY=0.019;exitDx=0;exitDy=0;exitPerimeter=0;entryX=0.128;entryY=0.999;entryDx=0;entryDy=0;entryPerimeter=0;" edge="1" parent="1" source="9IbDhbWunaavmZ5_FwmR-47" target="9IbDhbWunaavmZ5_FwmR-40">
          <mxGeometry relative="1" as="geometry">
            <mxPoint x="560" y="470" as="sourcePoint" />
            <mxPoint x="720" y="470" as="targetPoint" />
          </mxGeometry>
        </mxCell>
        <mxCell id="9IbDhbWunaavmZ5_FwmR-56" value="" style="endArrow=none;html=1;rounded=0;exitX=1;exitY=0.75;exitDx=0;exitDy=0;entryX=0.314;entryY=0.126;entryDx=0;entryDy=0;entryPerimeter=0;" edge="1" parent="1" source="9IbDhbWunaavmZ5_FwmR-40" target="9IbDhbWunaavmZ5_FwmR-52">
          <mxGeometry relative="1" as="geometry">
            <mxPoint x="560" y="470" as="sourcePoint" />
            <mxPoint x="720" y="470" as="targetPoint" />
          </mxGeometry>
        </mxCell>
        <mxCell id="9IbDhbWunaavmZ5_FwmR-57" value="&lt;font style=&quot;font-size: 18px;&quot;&gt;Contains&lt;/font&gt;" style="shape=rhombus;perimeter=rhombusPerimeter;whiteSpace=wrap;html=1;align=center;" vertex="1" parent="1">
          <mxGeometry x="540" y="530" width="120" height="60" as="geometry" />
        </mxCell>
        <mxCell id="9IbDhbWunaavmZ5_FwmR-58" value="" style="shape=link;html=1;rounded=0;exitX=1;exitY=0.5;exitDx=0;exitDy=0;" edge="1" parent="1" target="9IbDhbWunaavmZ5_FwmR-57">
          <mxGeometry relative="1" as="geometry">
            <mxPoint x="430" y="559.68" as="sourcePoint" />
            <mxPoint x="556.6800000000003" y="558.8199999999998" as="targetPoint" />
          </mxGeometry>
        </mxCell>
        <mxCell id="9IbDhbWunaavmZ5_FwmR-59" value="&lt;font style=&quot;font-size: 14px;&quot;&gt;M&lt;/font&gt;" style="resizable=0;html=1;whiteSpace=wrap;align=left;verticalAlign=bottom;" connectable="0" vertex="1" parent="9IbDhbWunaavmZ5_FwmR-58">
          <mxGeometry x="-1" relative="1" as="geometry" />
        </mxCell>
        <mxCell id="9IbDhbWunaavmZ5_FwmR-60" value="" style="resizable=0;html=1;whiteSpace=wrap;align=right;verticalAlign=bottom;" connectable="0" vertex="1" parent="9IbDhbWunaavmZ5_FwmR-58">
          <mxGeometry x="1" relative="1" as="geometry" />
        </mxCell>
        <mxCell id="9IbDhbWunaavmZ5_FwmR-62" value="" style="endArrow=none;html=1;rounded=0;exitX=1;exitY=0.5;exitDx=0;exitDy=0;entryX=0;entryY=0.5;entryDx=0;entryDy=0;" edge="1" parent="1" source="9IbDhbWunaavmZ5_FwmR-57" target="9IbDhbWunaavmZ5_FwmR-1">
          <mxGeometry relative="1" as="geometry">
            <mxPoint x="570" y="510" as="sourcePoint" />
            <mxPoint x="730" y="510" as="targetPoint" />
          </mxGeometry>
        </mxCell>
        <mxCell id="9IbDhbWunaavmZ5_FwmR-63" value="&lt;font style=&quot;font-size: 14px;&quot;&gt;1&lt;/font&gt;" style="text;html=1;align=center;verticalAlign=middle;resizable=0;points=[];autosize=1;strokeColor=none;fillColor=none;" vertex="1" parent="1">
          <mxGeometry x="690" y="535" width="30" height="30" as="geometry" />
        </mxCell>
        <mxCell id="9IbDhbWunaavmZ5_FwmR-64" value="" style="endArrow=none;html=1;rounded=0;entryX=0.5;entryY=1;entryDx=0;entryDy=0;exitX=0.5;exitY=0;exitDx=0;exitDy=0;" edge="1" parent="1" source="9IbDhbWunaavmZ5_FwmR-65" target="9IbDhbWunaavmZ5_FwmR-40">
          <mxGeometry relative="1" as="geometry">
            <mxPoint x="390" y="680" as="sourcePoint" />
            <mxPoint x="490" y="760" as="targetPoint" />
          </mxGeometry>
        </mxCell>
        <mxCell id="9IbDhbWunaavmZ5_FwmR-65" value="&lt;font style=&quot;font-size: 18px;&quot;&gt;Categorizes&lt;/font&gt;" style="shape=rhombus;perimeter=rhombusPerimeter;whiteSpace=wrap;html=1;align=center;" vertex="1" parent="1">
          <mxGeometry x="310" y="720" width="140" height="70" as="geometry" />
        </mxCell>
        <mxCell id="9IbDhbWunaavmZ5_FwmR-66" value="" style="endArrow=none;html=1;rounded=0;exitX=0.5;exitY=1;exitDx=0;exitDy=0;entryX=0.5;entryY=0;entryDx=0;entryDy=0;" edge="1" parent="1" source="9IbDhbWunaavmZ5_FwmR-65" target="9IbDhbWunaavmZ5_FwmR-67">
          <mxGeometry relative="1" as="geometry">
            <mxPoint x="570" y="630" as="sourcePoint" />
            <mxPoint x="400" y="870" as="targetPoint" />
          </mxGeometry>
        </mxCell>
        <mxCell id="9IbDhbWunaavmZ5_FwmR-67" value="&lt;span style=&quot;font-size: 18px;&quot;&gt;Category&lt;/span&gt;" style="whiteSpace=wrap;html=1;align=center;" vertex="1" parent="1">
          <mxGeometry x="330" y="900" width="100" height="40" as="geometry" />
        </mxCell>
        <mxCell id="9IbDhbWunaavmZ5_FwmR-68" value="" style="endArrow=none;html=1;rounded=0;entryX=0.25;entryY=0;entryDx=0;entryDy=0;exitX=0.646;exitY=0.925;exitDx=0;exitDy=0;exitPerimeter=0;" edge="1" parent="1" source="9IbDhbWunaavmZ5_FwmR-69" target="9IbDhbWunaavmZ5_FwmR-67">
          <mxGeometry relative="1" as="geometry">
            <mxPoint x="280" y="850" as="sourcePoint" />
            <mxPoint x="410" y="830" as="targetPoint" />
          </mxGeometry>
        </mxCell>
        <mxCell id="9IbDhbWunaavmZ5_FwmR-69" value="&lt;span style=&quot;font-size: 18px;&quot;&gt;CategoryId&lt;/span&gt;" style="ellipse;whiteSpace=wrap;html=1;align=center;fontStyle=4;" vertex="1" parent="1">
          <mxGeometry x="230" y="820" width="100" height="40" as="geometry" />
        </mxCell>
        <mxCell id="9IbDhbWunaavmZ5_FwmR-72" value="&lt;span style=&quot;font-size: 18px;&quot;&gt;CategoryName&lt;/span&gt;" style="ellipse;whiteSpace=wrap;html=1;align=center;" vertex="1" parent="1">
          <mxGeometry x="450" y="820" width="130" height="60" as="geometry" />
        </mxCell>
        <mxCell id="9IbDhbWunaavmZ5_FwmR-73" value="" style="endArrow=none;html=1;rounded=0;exitX=1;exitY=0;exitDx=0;exitDy=0;entryX=0;entryY=1;entryDx=0;entryDy=0;" edge="1" parent="1" source="9IbDhbWunaavmZ5_FwmR-67" target="9IbDhbWunaavmZ5_FwmR-72">
          <mxGeometry relative="1" as="geometry">
            <mxPoint x="610" y="930" as="sourcePoint" />
            <mxPoint x="770" y="930" as="targetPoint" />
          </mxGeometry>
        </mxCell>
        <mxCell id="9IbDhbWunaavmZ5_FwmR-74" value="&lt;font style=&quot;font-size: 14px;&quot;&gt;1&lt;/font&gt;" style="text;html=1;align=center;verticalAlign=middle;resizable=0;points=[];autosize=1;strokeColor=none;fillColor=none;" vertex="1" parent="1">
          <mxGeometry x="375" y="870" width="30" height="30" as="geometry" />
        </mxCell>
        <mxCell id="9IbDhbWunaavmZ5_FwmR-75" value="&lt;font style=&quot;font-size: 14px;&quot;&gt;M&lt;/font&gt;" style="text;html=1;align=center;verticalAlign=middle;resizable=0;points=[];autosize=1;strokeColor=none;fillColor=none;" vertex="1" parent="1">
          <mxGeometry x="375" y="570" width="40" height="30" as="geometry" />
        </mxCell>
        <mxCell id="9IbDhbWunaavmZ5_FwmR-79" value="&lt;font style=&quot;font-size: 18px;&quot;&gt;Posts&lt;/font&gt;" style="shape=rhombus;perimeter=rhombusPerimeter;whiteSpace=wrap;html=1;align=center;" vertex="1" parent="1">
          <mxGeometry x="40" y="510" width="150" height="80" as="geometry" />
        </mxCell>
        <mxCell id="9IbDhbWunaavmZ5_FwmR-80" value="" style="endArrow=none;html=1;rounded=0;entryX=0;entryY=0.5;entryDx=0;entryDy=0;" edge="1" parent="1" target="9IbDhbWunaavmZ5_FwmR-79">
          <mxGeometry relative="1" as="geometry">
            <mxPoint x="-100" y="549.41" as="sourcePoint" />
            <mxPoint x="50" y="580" as="targetPoint" />
          </mxGeometry>
        </mxCell>
        <mxCell id="9IbDhbWunaavmZ5_FwmR-81" value="&lt;span style=&quot;font-size: 18px;&quot;&gt;Customer&lt;/span&gt;" style="whiteSpace=wrap;html=1;align=center;" vertex="1" parent="1">
          <mxGeometry x="-200" y="525" width="100" height="40" as="geometry" />
        </mxCell>
        <mxCell id="9IbDhbWunaavmZ5_FwmR-82" value="" style="endArrow=none;html=1;rounded=0;entryX=0.25;entryY=0;entryDx=0;entryDy=0;exitX=0.646;exitY=0.925;exitDx=0;exitDy=0;exitPerimeter=0;" edge="1" parent="1" source="9IbDhbWunaavmZ5_FwmR-83" target="9IbDhbWunaavmZ5_FwmR-81">
          <mxGeometry relative="1" as="geometry">
            <mxPoint x="-250" y="475" as="sourcePoint" />
            <mxPoint x="-120" y="455" as="targetPoint" />
          </mxGeometry>
        </mxCell>
        <mxCell id="9IbDhbWunaavmZ5_FwmR-83" value="&lt;span style=&quot;font-size: 18px;&quot;&gt;CustomerId&lt;/span&gt;" style="ellipse;whiteSpace=wrap;html=1;align=center;fontStyle=4;" vertex="1" parent="1">
          <mxGeometry x="-300" y="445" width="120" height="45" as="geometry" />
        </mxCell>
        <mxCell id="9IbDhbWunaavmZ5_FwmR-84" value="" style="endArrow=none;html=1;rounded=0;entryX=0.5;entryY=0;entryDx=0;entryDy=0;exitX=0.426;exitY=1.065;exitDx=0;exitDy=0;exitPerimeter=0;" edge="1" parent="1" source="9IbDhbWunaavmZ5_FwmR-85" target="9IbDhbWunaavmZ5_FwmR-81">
          <mxGeometry relative="1" as="geometry">
            <mxPoint x="-140" y="435" as="sourcePoint" />
            <mxPoint x="-10" y="475" as="targetPoint" />
          </mxGeometry>
        </mxCell>
        <mxCell id="9IbDhbWunaavmZ5_FwmR-85" value="&lt;span style=&quot;font-size: 18px;&quot;&gt;Email&lt;/span&gt;" style="ellipse;whiteSpace=wrap;html=1;align=center;" vertex="1" parent="1">
          <mxGeometry x="-190" y="395" width="100" height="40" as="geometry" />
        </mxCell>
        <mxCell id="9IbDhbWunaavmZ5_FwmR-86" value="&lt;span style=&quot;font-size: 18px;&quot;&gt;Password&lt;/span&gt;" style="ellipse;whiteSpace=wrap;html=1;align=center;" vertex="1" parent="1">
          <mxGeometry x="-80" y="445" width="100" height="40" as="geometry" />
        </mxCell>
        <mxCell id="9IbDhbWunaavmZ5_FwmR-87" value="" style="endArrow=none;html=1;rounded=0;exitX=1;exitY=0;exitDx=0;exitDy=0;entryX=0;entryY=1;entryDx=0;entryDy=0;" edge="1" parent="1" source="9IbDhbWunaavmZ5_FwmR-81" target="9IbDhbWunaavmZ5_FwmR-86">
          <mxGeometry relative="1" as="geometry">
            <mxPoint x="80" y="555" as="sourcePoint" />
            <mxPoint x="240" y="555" as="targetPoint" />
          </mxGeometry>
        </mxCell>
        <mxCell id="9IbDhbWunaavmZ5_FwmR-88" value="" style="endArrow=none;html=1;rounded=0;exitX=0.75;exitY=0;exitDx=0;exitDy=0;entryX=0.3;entryY=0.918;entryDx=0;entryDy=0;entryPerimeter=0;" edge="1" parent="1" source="9IbDhbWunaavmZ5_FwmR-81" target="9IbDhbWunaavmZ5_FwmR-89">
          <mxGeometry relative="1" as="geometry">
            <mxPoint x="-40" y="395" as="sourcePoint" />
            <mxPoint x="-70" y="440" as="targetPoint" />
          </mxGeometry>
        </mxCell>
        <mxCell id="9IbDhbWunaavmZ5_FwmR-89" value="&lt;font style=&quot;font-size: 18px;&quot;&gt;Username&lt;/font&gt;" style="ellipse;whiteSpace=wrap;html=1;align=center;" vertex="1" parent="1">
          <mxGeometry x="-100" y="335" width="120" height="60" as="geometry" />
        </mxCell>
        <mxCell id="9IbDhbWunaavmZ5_FwmR-90" value="&lt;font style=&quot;font-size: 18px;&quot;&gt;Send/recieve messages&lt;/font&gt;" style="shape=rhombus;perimeter=rhombusPerimeter;whiteSpace=wrap;html=1;align=center;" vertex="1" parent="1">
          <mxGeometry x="-520" y="490" width="180" height="130" as="geometry" />
        </mxCell>
        <mxCell id="9IbDhbWunaavmZ5_FwmR-92" value="" style="endArrow=none;html=1;rounded=0;exitX=1;exitY=0.5;exitDx=0;exitDy=0;entryX=0;entryY=0.75;entryDx=0;entryDy=0;" edge="1" parent="1" source="9IbDhbWunaavmZ5_FwmR-90" target="9IbDhbWunaavmZ5_FwmR-81">
          <mxGeometry relative="1" as="geometry">
            <mxPoint x="-200" y="680" as="sourcePoint" />
            <mxPoint x="-40" y="680" as="targetPoint" />
          </mxGeometry>
        </mxCell>
        <mxCell id="9IbDhbWunaavmZ5_FwmR-93" value="&lt;font style=&quot;font-size: 14px;&quot;&gt;1&lt;/font&gt;" style="text;html=1;align=center;verticalAlign=middle;resizable=0;points=[];autosize=1;strokeColor=none;fillColor=none;" vertex="1" parent="1">
          <mxGeometry x="-105" y="518" width="30" height="30" as="geometry" />
        </mxCell>
        <mxCell id="9IbDhbWunaavmZ5_FwmR-94" value="&lt;font style=&quot;font-size: 18px;&quot;&gt;browses&lt;/font&gt;" style="shape=rhombus;perimeter=rhombusPerimeter;whiteSpace=wrap;html=1;align=center;" vertex="1" parent="1">
          <mxGeometry x="40" y="630" width="150" height="80" as="geometry" />
        </mxCell>
        <mxCell id="9IbDhbWunaavmZ5_FwmR-95" value="&lt;font style=&quot;font-size: 14px;&quot;&gt;M&lt;/font&gt;" style="text;html=1;align=center;verticalAlign=middle;resizable=0;points=[];autosize=1;strokeColor=none;fillColor=none;" vertex="1" parent="1">
          <mxGeometry x="290" y="518" width="40" height="30" as="geometry" />
        </mxCell>
        <mxCell id="9IbDhbWunaavmZ5_FwmR-97" value="" style="endArrow=none;html=1;rounded=0;exitX=1;exitY=1;exitDx=0;exitDy=0;entryX=0;entryY=0;entryDx=0;entryDy=0;" edge="1" parent="1" source="9IbDhbWunaavmZ5_FwmR-81" target="9IbDhbWunaavmZ5_FwmR-94">
          <mxGeometry relative="1" as="geometry">
            <mxPoint x="100" y="600" as="sourcePoint" />
            <mxPoint x="260" y="600" as="targetPoint" />
          </mxGeometry>
        </mxCell>
        <mxCell id="9IbDhbWunaavmZ5_FwmR-98" value="M" style="text;html=1;align=center;verticalAlign=middle;resizable=0;points=[];autosize=1;strokeColor=none;fillColor=none;" vertex="1" parent="1">
          <mxGeometry x="-130" y="565" width="30" height="30" as="geometry" />
        </mxCell>
        <mxCell id="9IbDhbWunaavmZ5_FwmR-101" value="" style="shape=link;html=1;rounded=0;exitX=0;exitY=1;exitDx=0;exitDy=0;entryX=0.857;entryY=0.33;entryDx=0;entryDy=0;entryPerimeter=0;" edge="1" parent="1" source="9IbDhbWunaavmZ5_FwmR-40" target="9IbDhbWunaavmZ5_FwmR-94">
          <mxGeometry relative="1" as="geometry">
            <mxPoint x="100" y="600" as="sourcePoint" />
            <mxPoint x="260" y="600" as="targetPoint" />
          </mxGeometry>
        </mxCell>
        <mxCell id="9IbDhbWunaavmZ5_FwmR-102" value="&lt;font style=&quot;font-size: 14px;&quot;&gt;M&lt;/font&gt;" style="resizable=0;html=1;whiteSpace=wrap;align=left;verticalAlign=bottom;" connectable="0" vertex="1" parent="9IbDhbWunaavmZ5_FwmR-101">
          <mxGeometry x="-1" relative="1" as="geometry">
            <mxPoint x="-30" y="10" as="offset" />
          </mxGeometry>
        </mxCell>
        <mxCell id="9IbDhbWunaavmZ5_FwmR-107" value="" style="shape=link;html=1;rounded=0;exitX=0;exitY=0.5;exitDx=0;exitDy=0;entryX=1;entryY=0.5;entryDx=0;entryDy=0;" edge="1" parent="1" source="9IbDhbWunaavmZ5_FwmR-40" target="9IbDhbWunaavmZ5_FwmR-79">
          <mxGeometry relative="1" as="geometry">
            <mxPoint x="100" y="600" as="sourcePoint" />
            <mxPoint x="260" y="600" as="targetPoint" />
          </mxGeometry>
        </mxCell>
        <mxCell id="9IbDhbWunaavmZ5_FwmR-108" value="" style="resizable=0;html=1;whiteSpace=wrap;align=left;verticalAlign=bottom;" connectable="0" vertex="1" parent="9IbDhbWunaavmZ5_FwmR-107">
          <mxGeometry x="-1" relative="1" as="geometry">
            <mxPoint x="-130" y="-60" as="offset" />
          </mxGeometry>
        </mxCell>
        <mxCell id="9IbDhbWunaavmZ5_FwmR-110" value="&lt;span style=&quot;font-size: 18px;&quot;&gt;Chat&lt;/span&gt;" style="whiteSpace=wrap;html=1;align=center;" vertex="1" parent="1">
          <mxGeometry x="-840" y="535" width="100" height="40" as="geometry" />
        </mxCell>
        <mxCell id="9IbDhbWunaavmZ5_FwmR-111" value="" style="endArrow=none;html=1;rounded=0;entryX=0.25;entryY=0;entryDx=0;entryDy=0;exitX=0.646;exitY=0.925;exitDx=0;exitDy=0;exitPerimeter=0;" edge="1" parent="1" source="9IbDhbWunaavmZ5_FwmR-112" target="9IbDhbWunaavmZ5_FwmR-110">
          <mxGeometry relative="1" as="geometry">
            <mxPoint x="-890" y="480" as="sourcePoint" />
            <mxPoint x="-760" y="460" as="targetPoint" />
          </mxGeometry>
        </mxCell>
        <mxCell id="9IbDhbWunaavmZ5_FwmR-112" value="&lt;span style=&quot;font-size: 18px;&quot;&gt;ChatId&lt;/span&gt;" style="ellipse;whiteSpace=wrap;html=1;align=center;fontStyle=4;" vertex="1" parent="1">
          <mxGeometry x="-980" y="460" width="110" height="50" as="geometry" />
        </mxCell>
        <mxCell id="9IbDhbWunaavmZ5_FwmR-113" value="" style="endArrow=none;html=1;rounded=0;entryX=0.5;entryY=0;entryDx=0;entryDy=0;exitX=0.426;exitY=1.065;exitDx=0;exitDy=0;exitPerimeter=0;" edge="1" parent="1" source="9IbDhbWunaavmZ5_FwmR-114" target="9IbDhbWunaavmZ5_FwmR-110">
          <mxGeometry relative="1" as="geometry">
            <mxPoint x="-780" y="440" as="sourcePoint" />
            <mxPoint x="-650" y="480" as="targetPoint" />
          </mxGeometry>
        </mxCell>
        <mxCell id="9IbDhbWunaavmZ5_FwmR-114" value="&lt;span style=&quot;font-size: 18px;&quot;&gt;Timestamp&lt;/span&gt;" style="ellipse;whiteSpace=wrap;html=1;align=center;" vertex="1" parent="1">
          <mxGeometry x="-850" y="380" width="120" height="60" as="geometry" />
        </mxCell>
        <mxCell id="9IbDhbWunaavmZ5_FwmR-118" value="&lt;span style=&quot;font-size: 18px;&quot;&gt;Reciever Id&lt;/span&gt;" style="ellipse;whiteSpace=wrap;html=1;align=center;" vertex="1" parent="1">
          <mxGeometry x="-960" y="340" width="130" height="60" as="geometry" />
        </mxCell>
        <mxCell id="9IbDhbWunaavmZ5_FwmR-119" value="&lt;span style=&quot;font-size: 18px;&quot;&gt;Message&lt;/span&gt;" style="ellipse;whiteSpace=wrap;html=1;align=center;" vertex="1" parent="1">
          <mxGeometry x="-740" y="350" width="120" height="50" as="geometry" />
        </mxCell>
        <mxCell id="9IbDhbWunaavmZ5_FwmR-120" value="&lt;span style=&quot;font-size: 18px;&quot;&gt;SenderId&lt;/span&gt;" style="ellipse;whiteSpace=wrap;html=1;align=center;" vertex="1" parent="1">
          <mxGeometry x="-990" y="575" width="120" height="60" as="geometry" />
        </mxCell>
        <mxCell id="9IbDhbWunaavmZ5_FwmR-121" value="" style="endArrow=none;html=1;rounded=0;exitX=0.75;exitY=0;exitDx=0;exitDy=0;entryX=0.35;entryY=0.967;entryDx=0;entryDy=0;entryPerimeter=0;" edge="1" parent="1" source="9IbDhbWunaavmZ5_FwmR-110" target="9IbDhbWunaavmZ5_FwmR-119">
          <mxGeometry relative="1" as="geometry">
            <mxPoint x="-770" y="500" as="sourcePoint" />
            <mxPoint x="-610" y="500" as="targetPoint" />
          </mxGeometry>
        </mxCell>
        <mxCell id="9IbDhbWunaavmZ5_FwmR-122" value="" style="endArrow=none;html=1;rounded=0;exitX=0.25;exitY=0;exitDx=0;exitDy=0;entryX=0.595;entryY=1.043;entryDx=0;entryDy=0;entryPerimeter=0;" edge="1" parent="1" source="9IbDhbWunaavmZ5_FwmR-110" target="9IbDhbWunaavmZ5_FwmR-118">
          <mxGeometry relative="1" as="geometry">
            <mxPoint x="-610" y="470" as="sourcePoint" />
            <mxPoint x="-450" y="470" as="targetPoint" />
          </mxGeometry>
        </mxCell>
        <mxCell id="9IbDhbWunaavmZ5_FwmR-124" value="" style="endArrow=none;html=1;rounded=0;exitX=0;exitY=0.75;exitDx=0;exitDy=0;entryX=0.5;entryY=0;entryDx=0;entryDy=0;" edge="1" parent="1" source="9IbDhbWunaavmZ5_FwmR-110" target="9IbDhbWunaavmZ5_FwmR-120">
          <mxGeometry relative="1" as="geometry">
            <mxPoint x="-610" y="470" as="sourcePoint" />
            <mxPoint x="-920" y="565" as="targetPoint" />
          </mxGeometry>
        </mxCell>
        <mxCell id="9IbDhbWunaavmZ5_FwmR-125" value="" style="shape=link;html=1;rounded=0;exitX=1;exitY=0.5;exitDx=0;exitDy=0;entryX=0;entryY=0.5;entryDx=0;entryDy=0;" edge="1" parent="1" source="9IbDhbWunaavmZ5_FwmR-110" target="9IbDhbWunaavmZ5_FwmR-90">
          <mxGeometry relative="1" as="geometry">
            <mxPoint x="-740" y="559.68" as="sourcePoint" />
            <mxPoint x="-630" y="560" as="targetPoint" />
          </mxGeometry>
        </mxCell>
        <mxCell id="9IbDhbWunaavmZ5_FwmR-126" value="&lt;font style=&quot;font-size: 14px;&quot;&gt;M&lt;/font&gt;" style="resizable=0;html=1;whiteSpace=wrap;align=left;verticalAlign=bottom;" connectable="0" vertex="1" parent="9IbDhbWunaavmZ5_FwmR-125">
          <mxGeometry x="-1" relative="1" as="geometry" />
        </mxCell>
        <mxCell id="9IbDhbWunaavmZ5_FwmR-127" value="" style="resizable=0;html=1;whiteSpace=wrap;align=right;verticalAlign=bottom;" connectable="0" vertex="1" parent="9IbDhbWunaavmZ5_FwmR-125">
          <mxGeometry x="1" relative="1" as="geometry" />
        </mxCell>
        <mxCell id="9IbDhbWunaavmZ5_FwmR-132" value="M" style="text;html=1;align=center;verticalAlign=middle;resizable=0;points=[];autosize=1;strokeColor=none;fillColor=none;" vertex="1" parent="1">
          <mxGeometry x="-230" y="520" width="30" height="30" as="geometry" />
        </mxCell>
      </root>
    </mxGraphModel>
  </diagram>
</mxfile>
